<svg id="SvgjsSvg1024" width="288" height="288" xmlns="http://www.w3.org/2000/svg" version="1.1" xmlns:xlink="http://www.w3.org/1999/xlink" xmlns:svgjs="http://svgjs.com/svgjs"><defs id="SvgjsDefs1025"></defs><g id="SvgjsG1026" transform="matrix(1,0,0,1,0,0)"><svg xmlns="http://www.w3.org/2000/svg" width="288" height="288" viewBox="0 0 72 72"><g fill="none" fill-rule="evenodd"><path fill="#ffffff" d="M9 2h55v67H9z" class="colorFFF svgShape"></path><rect width="72" height="72" fill="#ea168c" rx="4" class="colorE42B28 svgShape"></rect><path fill="#fffffe" d="M61.207 23.73c.333 1.338.793 8.667.793 11.464v.612c0 2.797-.46 10.126-.793 11.464-.99 3.979-2.849 5.512-6.27 6.065-1.973.291-11.44.665-18.954.665h.034c-7.514 0-16.981-.374-18.954-.665-3.421-.554-5.28-2.086-6.27-6.065C10.46 45.932 10 38.603 10 35.806v-.612c0-2.797.46-10.126.793-11.464.99-3.979 2.849-5.511 6.27-6.065 1.973-.291 11.44-.665 18.954-.665h-.034c7.514 0 16.981.374 18.954.665 3.421.553 5.28 2.086 6.27 6.064zM30.6 28.002v14.825l13.813-7.588L30.6 28.003z" class="colorFFFFFE svgShape"></path></g></svg></g></svg>